<svg version="1.1" id="Layer_1" xmlns="http://www.w3.org/2000/svg" xmlns:xlink="http://www.w3.org/1999/xlink" x="0px" y="0px"
	 width="100%" viewBox="0 0 377 314" enable-background="new 0 0 377 314" xml:space="preserve">
<path fill="#141313" opacity="1.000000" stroke="none" 
	d="
M1.000000,113.000000 
	C1.000000,75.346779 1.000000,38.193558 1.000000,1.020167 
	C126.607765,1.020167 252.215530,1.020167 377.911652,1.020167 
	C377.911652,105.569839 377.911652,210.139771 377.911652,314.854858 
	C252.333466,314.854858 126.666748,314.854858 1.000000,314.854858 
	C1.000000,247.784561 1.000000,180.642288 1.000000,113.000000 
M63.549591,224.269913 
	C63.349728,224.586945 63.149864,224.903961 62.407154,225.671875 
	C62.275791,227.433853 62.144424,229.195847 62.205032,231.746826 
	C62.862282,232.151337 63.516331,232.902039 64.177254,232.908142 
	C73.284920,232.992233 82.394157,233.022049 91.500816,232.900192 
	C92.338463,232.888992 93.161034,231.749908 94.541252,230.626129 
	C94.336044,228.828720 94.130844,227.031326 93.957474,224.617722 
	C93.971191,224.412521 93.984909,224.207306 94.159866,223.421234 
	C86.484848,223.278625 78.809891,223.050476 71.134766,223.044510 
	C68.767365,223.042664 66.399498,223.646729 63.549591,224.269913 
M286.112183,224.885147 
	C286.142090,225.171188 286.171997,225.457230 285.902527,226.330185 
	C283.855774,228.489380 285.139252,229.882019 287.239716,231.898422 
	C287.759155,232.241165 288.276001,232.878281 288.798401,232.882858 
	C297.692780,232.960739 306.588470,233.008728 315.481812,232.898041 
	C316.324524,232.887558 317.153473,231.773544 318.513000,230.760574 
	C318.355133,228.926483 318.197266,227.092392 318.001831,224.637375 
	C318.000641,224.430054 317.999420,224.222717 317.407227,223.424606 
	C308.323547,223.283875 299.240112,223.097427 290.155945,223.051117 
	C288.773956,223.044067 287.388641,223.686844 286.112183,224.885147 
M270.243073,195.005508 
	C269.355011,195.261322 268.466949,195.517151 267.578888,195.772980 
	C267.654663,196.045746 267.730438,196.318512 267.806213,196.591278 
	C268.729858,196.591278 269.653473,196.591278 269.995667,197.263458 
	C268.423340,201.004059 270.257843,202.064011 273.667328,202.060287 
	C287.635223,202.045013 301.603546,202.124146 315.570465,202.010406 
	C317.003876,201.998749 318.428680,200.930496 319.857483,200.352524 
	C319.250824,198.943237 318.644196,197.533951 317.744324,195.649139 
	C317.157471,195.786621 316.570587,195.924103 315.124054,196.302673 
	C312.752686,196.225327 310.381287,196.147964 308.015198,195.516388 
	C308.011353,195.331680 308.007507,195.146957 307.388977,194.399933 
	C295.819855,194.288925 284.250824,194.164551 272.681427,194.107758 
	C272.124115,194.105011 271.563873,194.697693 271.002075,194.999207 
	C271.002075,194.999207 271.013336,195.005035 270.243073,195.005508 
M271.624695,116.602440 
	C285.837799,116.713257 300.050873,116.834618 314.264160,116.896065 
	C314.828735,116.898506 315.395782,116.331032 316.656555,115.916771 
	C317.155060,115.461922 317.653564,115.007080 318.579559,114.112717 
	C321.011871,112.121765 320.140076,110.381233 317.729309,107.915848 
	C316.982605,107.622337 316.237091,107.076225 315.489044,107.072777 
	C301.695984,107.009102 287.902313,106.972870 274.109833,107.073059 
	C273.074036,107.080582 272.046021,108.159523 270.538757,109.192696 
	C270.670746,110.984390 270.802734,112.776085 270.991486,115.305801 
	C270.998810,115.552422 271.006134,115.799049 271.624695,116.602440 
M109.408058,194.435181 
	C94.165543,194.313110 78.923073,194.180817 63.680328,194.109756 
	C63.122902,194.107147 62.562672,194.704666 62.084633,195.806763 
	C62.100552,196.069092 62.116467,196.331421 61.710575,197.193008 
	C59.391022,201.489609 61.957264,202.069443 65.383453,202.065704 
	C79.198524,202.050629 93.013695,202.082458 106.828651,202.038574 
	C111.540878,202.023605 112.203781,200.709778 109.934189,195.680069 
	C109.954422,195.463379 109.974663,195.246674 109.408058,194.435181 
M109.913803,115.216438 
	C109.900536,114.966377 109.887276,114.716324 110.225067,114.009308 
	C110.146942,112.300400 110.068817,110.591484 109.766098,108.118057 
	C109.080490,107.749557 108.396317,107.062599 107.709068,107.059502 
	C93.562904,106.995750 79.416100,106.973007 65.270554,107.085648 
	C64.249428,107.093773 63.237038,108.201256 61.902237,109.233086 
	C61.976490,110.985863 62.050747,112.738640 62.083370,115.226715 
	C62.057556,115.470848 62.031746,115.714973 62.584427,116.563965 
	C77.831261,116.685410 93.078056,116.817154 108.325119,116.887047 
	C108.880219,116.889587 109.438103,116.284943 109.913803,115.216438 
M62.555210,87.541695 
	C66.026253,87.369965 69.497299,87.198242 73.500290,87.017944 
	C73.677597,87.020943 73.854912,87.023933 74.628677,87.597176 
	C81.086403,87.393814 87.544121,87.190453 93.978798,86.408981 
	C93.978729,86.023888 93.978661,85.638786 94.522972,84.782539 
	C97.211761,81.187187 95.701851,79.750427 91.826797,79.666061 
	C85.591385,79.530304 79.354393,79.467270 72.711151,78.739296 
	C71.440865,78.936752 70.170578,79.134209 68.111954,79.620865 
	C66.991768,79.630692 65.871323,79.628662 64.751434,79.652451 
	C60.418594,79.744514 59.628532,81.626106 62.045200,85.713234 
	C62.029251,86.122345 62.013302,86.531464 62.555210,87.541695 
M287.582886,87.567383 
	C295.328766,87.713768 303.074524,87.945724 310.820557,87.955391 
	C313.202454,87.958366 315.585114,87.353661 318.461090,86.663788 
	C318.634186,86.086937 318.807312,85.510086 319.212341,84.335175 
	C319.530243,83.557953 319.848145,82.780731 320.898102,81.986252 
	C322.167053,80.873802 323.436035,79.761345 324.704987,78.648880 
	C322.312622,77.122581 320.061218,74.728622 317.488770,74.310638 
	C314.842834,73.880714 312.589111,75.974365 312.224152,79.633469 
	C309.474030,79.558022 306.723938,79.482567 303.694580,78.794327 
	C302.094086,78.977989 300.493561,79.161644 298.022858,79.629440 
	C295.196808,79.640839 292.359741,79.509483 289.549438,79.725571 
	C288.202454,79.829140 285.975311,80.365417 285.796814,81.104340 
	C285.501892,82.325157 286.543732,83.868912 287.057068,85.839676 
	C287.036957,86.215187 287.016846,86.590706 287.582886,87.567383 
M133.983353,280.370270 
	C133.985931,279.961273 133.988510,279.552277 134.772278,278.904144 
	C146.735977,277.555359 152.010178,269.348816 155.719223,258.526337 
	C157.015137,254.293945 158.311050,250.061539 159.606949,245.829147 
	C159.791656,246.188599 159.976364,246.548050 160.161072,246.907501 
	C154.141876,252.284897 148.122681,257.662292 141.288635,263.028229 
	C138.800140,262.944672 135.773911,263.724548 133.943420,262.584503 
	C130.844177,260.654327 128.405045,261.167755 125.562424,262.464264 
	C124.122925,263.120850 122.556953,263.927948 121.045181,263.934082 
	C97.753365,264.028961 74.460976,264.024292 51.169022,263.950012 
	C49.853619,263.945831 48.540771,263.140472 47.226734,262.708008 
	C47.725597,261.386505 48.385605,260.100159 48.683559,258.734833 
	C49.078709,256.924103 49.611897,254.983826 49.327789,253.221420 
	C48.885231,250.476120 47.172035,247.848984 47.106297,245.144806 
	C46.839523,234.170700 46.996208,223.186295 46.995781,212.205688 
	C46.995594,207.470673 46.993145,202.735672 46.997543,197.250412 
	C46.996880,196.500107 46.996216,195.749817 46.997051,194.142761 
	C46.995949,192.428726 46.994846,190.714691 46.997852,188.250351 
	C46.995338,187.500076 46.992825,186.749786 46.992851,185.142761 
	C46.992786,183.428726 46.992722,181.714691 46.998043,179.250443 
	C46.997852,178.500183 46.997665,177.749908 46.999084,176.142883 
	C46.998455,174.428848 46.997822,172.714813 46.998409,170.499847 
	C46.997395,170.332870 46.996384,170.165909 46.996349,169.142212 
	C46.995159,167.428238 46.993965,165.714249 46.997890,163.166885 
	C46.997040,161.777832 46.996185,160.388763 46.996811,158.199829 
	C46.996162,157.133316 46.995514,156.066803 46.998596,154.143311 
	C46.997524,152.428802 46.996452,150.714279 46.997375,148.091599 
	C46.997410,145.061172 46.997448,142.030731 46.999958,138.166855 
	C46.997334,136.777863 46.994713,135.388885 46.993488,133.139191 
	C46.994267,127.577583 47.099003,122.013649 46.974293,116.454857 
	C46.710552,104.699646 46.090919,92.947617 46.066055,81.193344 
	C46.045601,71.519417 46.652485,61.843307 47.051163,52.171043 
	C47.081802,51.427715 47.666626,50.707230 48.931973,49.985497 
	C54.955345,49.987305 60.978718,49.989109 67.938828,49.997353 
	C84.958450,49.995197 101.978073,49.993046 119.931580,49.994991 
	C123.843292,49.995598 127.771530,50.203331 131.658463,49.893261 
	C133.179703,49.771912 134.608246,48.488590 136.811813,47.741730 
	C144.336304,54.238941 151.860794,60.736153 159.562073,67.386024 
	C157.545700,61.663795 155.601944,55.741486 153.374100,49.928032 
	C150.576431,42.627567 145.883499,37.133507 137.947479,34.416870 
	C137.638382,33.949730 137.329300,33.482590 136.418076,32.429478 
	C135.610855,32.286259 134.803726,32.018467 133.996399,32.017849 
	C106.239708,31.996769 78.482979,31.988512 50.726372,32.042683 
	C49.493397,32.045090 48.261593,32.649075 46.327705,32.997986 
	C45.553627,33.646252 44.779549,34.294521 43.373104,35.286446 
	C35.291256,38.112030 32.263821,42.381821 32.265392,50.927284 
	C32.278351,121.401558 32.372387,191.876038 32.191330,262.349823 
	C32.169804,270.727814 36.072632,277.289490 45.178703,279.808960 
	C46.795078,280.213806 48.411453,280.618622 50.624741,281.595398 
	C51.601048,281.729340 52.577301,281.979858 53.553669,281.980286 
	C80.820053,281.992615 108.086441,281.980621 135.352798,281.946136 
	C135.515884,281.945953 135.678513,281.573273 135.966690,281.221527 
	C135.232819,281.133667 134.607086,281.058746 133.983353,280.370270 
M334.995636,280.351105 
	C334.995331,279.926392 334.995026,279.501709 335.576996,278.770233 
	C336.383423,278.447845 337.189850,278.125488 338.672424,277.818085 
	C339.950012,276.947296 341.227631,276.076477 343.102264,274.922699 
	C346.622955,271.609650 347.753693,267.467743 347.697052,262.737000 
	C347.569427,252.081512 347.610535,241.423782 347.611908,230.766968 
	C347.619568,171.154984 347.665527,111.542992 347.620605,51.931057 
	C347.612946,41.747025 344.687866,38.035046 334.754303,34.091419 
	C333.563446,33.731583 332.373291,33.060326 331.181641,33.057602 
	C303.758942,32.994946 276.335999,32.978096 248.913589,33.084984 
	C247.607803,33.090076 246.306778,34.310326 244.362839,35.311073 
	C241.119888,37.185452 237.101746,38.388527 234.784378,41.064461 
	C228.681610,48.111473 226.529541,57.108856 223.406448,67.251900 
	C225.753784,65.429733 226.933243,64.646660 227.957840,63.696575 
	C233.303070,58.740086 238.608917,53.741135 244.070679,49.459244 
	C248.046494,49.637947 252.022324,49.816650 256.906738,49.999275 
	C259.938416,49.998085 262.970093,49.996895 266.901337,49.997025 
	C269.600098,49.996067 272.298859,49.995110 275.831757,49.999084 
	C277.221954,49.997356 278.612122,49.995628 280.923218,49.995239 
	C284.614777,49.995045 288.306305,49.994854 292.906525,49.999256 
	C295.938354,49.997742 298.970184,49.996231 302.876465,49.995827 
	C304.916809,49.995102 306.957153,49.994381 309.831909,49.998672 
	C311.222565,49.994247 312.613251,49.989822 314.835815,49.987736 
	C316.222351,49.987301 317.608856,49.986870 319.746796,49.996037 
	C320.498260,49.996742 321.249695,49.997448 322.705505,50.078915 
	C326.753204,52.389553 330.800903,54.700191 334.986603,57.749863 
	C335.308716,58.838699 335.630859,59.927536 336.053619,61.939102 
	C335.988708,66.291649 335.923798,70.644188 335.066101,74.997726 
	C330.150055,74.554695 329.248993,78.176758 329.119385,81.620079 
	C328.858582,88.548340 330.717163,90.794548 336.045288,91.925117 
	C335.991180,99.615852 335.937103,107.306580 335.080261,114.998795 
	C332.138336,114.658310 329.969696,115.757599 330.158142,118.884407 
	C330.358673,122.211205 331.100861,125.653473 336.044769,125.925179 
	C335.978912,133.948929 335.913025,141.972687 335.050842,150.000061 
	C331.189880,149.741241 330.977875,152.227417 330.966156,155.147018 
	C330.951904,158.693298 333.089874,159.159531 336.024811,159.926270 
	C335.970032,178.616440 335.915283,197.306610 335.084106,216.000046 
	C333.748260,217.047745 332.412415,218.095444 331.076569,219.143127 
	C332.672546,220.096466 334.268524,221.049805 336.041138,222.904587 
	C335.974854,226.268494 335.908569,229.632401 335.031067,232.996841 
	C332.465363,232.937073 329.854797,232.947800 330.050995,236.577240 
	C330.243958,240.147385 331.813324,242.454453 336.039612,242.923294 
	C336.018616,248.613174 335.997650,254.303070 335.278107,260.287262 
	C335.254089,261.532410 335.230072,262.777527 335.027649,264.580780 
	C334.716278,264.804413 334.404907,265.028046 333.590729,264.635895 
	C331.733246,264.432861 329.875763,264.229797 327.077728,264.006165 
	C303.045349,264.014191 279.012970,264.022217 254.107788,264.026215 
	C251.702637,264.686005 248.365555,262.293060 246.215958,266.210449 
	C243.295303,264.420807 240.374634,262.631134 237.137924,260.219757 
	C232.952560,256.096344 228.767212,251.972931 224.581863,247.849503 
	C224.294189,247.980927 224.006516,248.112335 223.718842,248.243744 
	C224.856216,251.490723 225.993591,254.737686 227.131882,258.715332 
	C230.449341,264.022034 233.766785,269.328705 237.514084,275.199005 
	C238.999573,275.922974 240.485077,276.646942 242.478516,277.809326 
	C243.988449,278.250214 245.498383,278.691071 247.021774,279.747681 
	C247.018967,280.158264 247.016174,280.568848 246.838562,281.560333 
	C247.282654,281.709503 247.726639,281.989014 248.170837,281.989288 
	C275.890167,282.007660 303.609528,282.016052 331.328766,281.957916 
	C332.553650,281.955353 333.777252,281.325714 334.995636,280.351105 
M102.789711,143.844727 
	C103.859734,143.898361 104.929756,143.951996 106.181030,144.757477 
	C108.974045,146.425400 111.712326,147.530075 114.913094,143.822952 
	C118.405319,143.796051 121.925423,144.015411 125.376488,143.624802 
	C126.819595,143.461472 128.116089,142.002792 129.479233,141.133041 
	C128.097870,140.100037 126.725128,138.180786 125.333870,138.167282 
	C105.212852,137.971970 85.089203,137.992050 64.966553,138.063629 
	C60.611176,138.079117 60.047539,139.387772 62.155643,144.405518 
	C64.343033,145.533615 66.483727,147.464233 68.729156,147.594894 
	C71.817001,147.774536 75.012360,146.704956 78.101685,145.931198 
	C79.160873,145.665909 80.039688,144.680511 81.922318,143.861938 
	C86.947975,143.914185 91.973633,143.966446 97.152603,144.727921 
	C99.062523,146.482834 100.794258,147.029510 102.789711,143.844727 
M282.191162,144.768188 
	C285.609680,146.412796 288.994873,147.632233 292.876160,143.832870 
	C295.250732,143.889404 297.625336,143.945953 300.187714,144.765839 
	C303.281982,146.260132 306.362335,147.598907 309.880859,143.801102 
	C312.375458,143.752930 314.906586,143.933563 317.346588,143.543762 
	C318.319977,143.388245 319.897888,141.825455 319.776825,141.163742 
	C319.568054,140.022339 318.372925,138.917740 317.338440,138.130463 
	C316.806396,137.725571 315.728027,138.029037 314.896545,138.028564 
	C295.429291,138.017593 275.962036,138.008240 256.494781,138.001648 
	C255.663406,138.001373 254.628433,137.723969 254.044449,138.111847 
	C252.943069,138.843384 251.348831,139.975632 251.361053,140.923248 
	C251.373550,141.892548 252.922058,143.366089 254.056992,143.678421 
	C255.928040,144.193329 258.007385,143.951355 260.199371,144.798294 
	C263.926239,146.254944 267.650665,147.678040 271.903320,143.835052 
	C275.268890,143.890030 278.634430,143.945023 282.191162,144.768188 
M209.643570,187.914062 
	C220.736038,203.695312 231.808594,219.490662 242.963593,235.227554 
	C243.748245,236.334488 245.113266,237.721313 246.257065,237.767258 
	C252.467850,238.016800 258.693939,237.885742 266.112671,237.885742 
	C246.614532,210.968689 227.875656,185.099808 208.961731,158.989258 
	C199.583633,173.317795 199.583771,173.317703 208.673172,186.499527 
	C208.861832,186.773148 209.036575,187.056381 209.643570,187.914062 
M149.937653,222.463943 
	C160.344406,207.622864 170.783066,192.803879 181.101822,177.901871 
	C181.998917,176.606339 182.945633,174.389786 182.433716,173.240494 
	C180.294601,168.438141 177.607285,163.879974 174.887375,158.795761 
	C155.854401,185.263382 137.216553,211.181519 118.262970,237.538727 
	C119.711617,237.728104 120.176590,237.846466 120.640045,237.840775 
	C126.779892,237.765427 133.849991,239.528351 138.791626,237.050583 
	C143.520767,234.679367 146.037781,227.896301 149.937653,222.463943 
M204.179153,147.315704 
	C205.682144,149.991470 207.185120,152.667221 208.984039,155.869858 
	C228.115738,129.673416 246.710007,104.212860 265.967255,77.844498 
	C259.753174,77.844498 254.637909,78.092422 249.560638,77.759918 
	C246.000854,77.526787 243.853058,78.637833 241.777481,81.609856 
	C229.474915,99.225769 217.124557,116.815666 204.361481,134.097656 
	C200.998627,138.651169 200.082932,142.289047 204.179153,147.315704 
M148.102356,90.366165 
	C145.690735,86.977692 143.340805,83.542435 140.829102,80.229836 
	C140.095032,79.261673 138.921158,78.000999 137.913376,77.968285 
	C131.558090,77.761971 125.192795,77.863739 117.986519,77.863739 
	C137.240891,104.251266 155.814423,129.705704 174.734955,155.635712 
	C177.184814,151.351593 179.140457,147.516266 181.498520,143.946808 
	C183.214935,141.348618 183.051300,139.434494 181.226105,136.902878 
	C170.231400,121.652969 159.410355,106.277840 148.102356,90.366165 
M265.515991,172.950546 
	C280.665405,172.943924 295.814789,172.939301 310.964203,172.928070 
	C312.795258,172.926712 314.717072,173.224533 316.427979,172.760757 
	C317.742218,172.404510 318.790741,171.067963 319.957428,170.167358 
	C318.722198,169.149216 317.569885,167.993805 316.214203,167.175095 
	C315.603363,166.806198 314.587036,167.107574 313.754669,167.106812 
	C298.938263,167.093369 284.121826,167.076706 269.305420,167.069107 
	C264.810547,167.066803 260.290771,166.822861 255.833755,167.239532 
	C254.176224,167.394485 252.665817,169.123077 251.088333,170.134094 
	C252.736710,171.078964 254.296982,172.555084 256.053741,172.846344 
	C258.807373,173.302902 261.693634,172.959274 265.515991,172.950546 
M93.500031,167.096359 
	C84.168900,167.091492 74.833557,166.943802 65.510674,167.218567 
	C63.906635,167.265854 62.355553,169.110001 60.779999,170.124115 
	C62.402660,171.074493 64.017929,172.836746 65.649117,172.851593 
	C85.309364,173.030594 104.972672,173.019363 124.632584,172.811462 
	C126.226959,172.794601 127.802200,170.969391 129.386337,169.984497 
	C127.755173,169.035217 126.145012,167.308807 124.489395,167.264053 
	C114.498718,166.994049 104.497635,167.109039 93.500031,167.096359 
M140.514694,33.422100 
	C140.514694,33.422100 140.571045,33.519974 140.514694,33.422100 
z"/>
<path fill="#F8F8F8" opacity="1.000000" stroke="none" 
	d="
M237.453979,260.841492 
	C240.374634,262.631134 243.295303,264.420807 246.937302,266.432495 
	C275.419281,266.728058 303.179932,266.819427 330.940552,266.806213 
	C331.991791,266.805695 333.042542,265.792816 334.093536,265.251678 
	C334.404907,265.028046 334.716278,264.804413 335.441772,264.221100 
	C335.896118,262.571930 335.936371,261.282440 335.976624,259.992950 
	C335.997650,254.303070 336.018616,248.613174 336.036804,242.019745 
	C335.970093,238.409576 335.906219,235.702942 335.842285,232.996307 
	C335.908569,229.632401 335.974854,226.268494 336.042633,222.031662 
	C335.982941,219.438080 335.921722,217.717438 335.860535,215.996780 
	C335.915283,197.306610 335.970032,178.616440 336.029114,159.021820 
	C335.971313,155.410385 335.909241,152.703415 335.847168,149.996445 
	C335.913025,141.972687 335.978912,133.948929 336.046021,125.017029 
	C335.992493,121.071693 335.937744,118.034500 335.882996,114.997314 
	C335.937103,107.306580 335.991180,99.615852 336.048462,91.004868 
	C335.987396,85.055328 335.923157,80.026031 335.858887,74.996735 
	C335.923798,70.644188 335.988708,66.291649 336.305359,61.201859 
	C336.134735,56.945553 335.712311,53.426498 335.175964,49.861549 
	C335.062042,49.815655 334.929871,50.022663 335.001770,49.717445 
	C334.749268,49.166519 334.424805,48.920807 334.038635,48.269924 
	C332.735443,47.581463 331.494293,47.052567 330.252472,47.051037 
	C303.670685,47.018311 277.088684,47.004883 250.507416,47.132942 
	C248.311874,47.143517 246.121338,48.191158 243.928467,48.756950 
	C238.608917,53.741135 233.303070,58.740086 227.957840,63.696575 
	C226.933243,64.646660 225.753784,65.429733 223.406448,67.251900 
	C226.529541,57.108856 228.681610,48.111473 234.784378,41.064461 
	C237.101746,38.388527 241.119888,37.185452 245.149292,35.187782 
	C275.619568,34.992249 305.303375,34.920010 334.987183,34.847771 
	C344.687866,38.035046 347.612946,41.747025 347.620605,51.931057 
	C347.665527,111.542992 347.619568,171.154984 347.611908,230.766968 
	C347.610535,241.423782 347.569427,252.081512 347.697052,262.737000 
	C347.753693,267.467743 346.622955,271.609650 342.464417,274.932495 
	C338.654633,273.358459 338.089386,275.264709 337.996307,277.803131 
	C337.189850,278.125488 336.383423,278.447845 334.880096,278.837524 
	C305.124908,278.980530 276.066620,279.056244 247.008331,279.131958 
	C245.498383,278.691071 243.988449,278.250214 242.218887,277.138428 
	C241.447800,272.893799 239.127213,274.133942 237.084244,274.635406 
	C233.766785,269.328705 230.449341,264.022034 227.410904,258.243958 
	C230.944611,258.795532 234.199295,259.818512 237.453979,260.841492 
M277.502136,44.998337 
	C295.217041,44.998337 312.931946,44.998337 330.646851,44.998337 
	C330.643738,44.758125 330.640594,44.517910 330.637482,44.277699 
	C307.478271,44.277699 284.319061,44.277699 261.159882,44.277699 
	C261.156525,44.517906 261.153168,44.758114 261.149811,44.998322 
	C266.267731,44.998322 271.385651,44.998322 277.502136,44.998337 
z"/>
<path fill="#F9F9F9" opacity="1.000000" stroke="none" 
	d="
M138.000000,35.000099 
	C145.883499,37.133507 150.576431,42.627567 153.374100,49.928032 
	C155.601944,55.741486 157.545700,61.663795 159.562073,67.386024 
	C151.860794,60.736153 144.336304,54.238941 136.091965,47.511242 
	C134.717468,47.180199 134.062851,46.991951 133.408173,46.991699 
	C105.367775,46.981010 77.327263,46.956490 49.287304,47.069458 
	C47.662815,47.076000 46.042896,48.215515 44.299965,49.172401 
	C44.074852,51.005066 43.879452,52.493107 43.879501,53.981136 
	C43.881821,122.889587 43.934849,191.798080 43.847420,260.706390 
	C43.841183,265.618622 45.789268,266.997009 50.413940,266.966339 
	C76.877747,266.790558 103.343498,266.900879 129.807068,266.706421 
	C133.370468,266.680237 136.925278,265.483582 140.888977,264.871490 
	C143.291779,264.008057 145.981964,263.622955 147.139450,262.084625 
	C149.361206,259.131927 152.016312,258.736023 155.186188,258.991241 
	C152.010178,269.348816 146.735977,277.555359 133.923676,278.920074 
	C103.718880,278.986877 74.362671,279.037750 45.006462,279.088623 
	C36.072632,277.289490 32.169804,270.727814 32.191330,262.349823 
	C32.372387,191.876038 32.278351,121.401558 32.265392,50.927284 
	C32.263821,42.381821 35.291256,38.112030 44.154953,35.167732 
	C75.957870,35.032715 106.978935,35.016407 138.000000,35.000099 
M81.442047,44.007950 
	C80.989113,44.137295 80.536186,44.266644 79.218834,44.642853 
	C97.285675,44.642853 114.460258,44.642853 131.634842,44.642853 
	C131.634460,44.429131 131.634094,44.215405 131.633713,44.001682 
	C115.171555,44.001682 98.709404,44.001682 81.442047,44.007950 
M59.436077,44.007687 
	C58.985252,44.137325 58.534428,44.266964 57.230988,44.641777 
	C62.955818,44.641777 67.797905,44.641777 72.639992,44.641777 
	C72.637627,44.428307 72.635262,44.214832 72.632889,44.001362 
	C68.501045,44.001362 64.369194,44.001362 59.436077,44.007687 
M41.259495,69.164070 
	C41.416557,69.112610 41.573616,69.061150 41.730675,69.009689 
	C41.572826,68.959023 41.414978,68.908356 41.259495,69.164070 
M41.484428,64.576836 
	C41.484428,64.576836 41.428242,64.478195 41.484428,64.576836 
M47.485165,44.576435 
	C47.485165,44.576435 47.428661,44.477684 47.485165,44.576435 
z"/>
<path fill="#F4F3F4" opacity="1.000000" stroke="none" 
	d="
M209.430695,187.624603 
	C209.036575,187.056381 208.861832,186.773148 208.673172,186.499527 
	C199.583771,173.317703 199.583633,173.317795 208.961731,158.989258 
	C227.875656,185.099808 246.614532,210.968689 266.112671,237.885742 
	C258.693939,237.885742 252.467850,238.016800 246.257065,237.767258 
	C245.113266,237.721313 243.748245,236.334488 242.963593,235.227554 
	C231.808594,219.490662 220.736038,203.695312 209.430695,187.624603 
z"/>
<path fill="#F5F4F4" opacity="1.000000" stroke="none" 
	d="
M149.732361,222.758148 
	C146.037781,227.896301 143.520767,234.679367 138.791626,237.050583 
	C133.849991,239.528351 126.779892,237.765427 120.640045,237.840775 
	C120.176590,237.846466 119.711617,237.728104 118.262970,237.538727 
	C137.216553,211.181519 155.854401,185.263382 174.887375,158.795761 
	C177.607285,163.879974 180.294601,168.438141 182.433716,173.240494 
	C182.945633,174.389786 181.998917,176.606339 181.101822,177.901871 
	C170.783066,192.803879 160.344406,207.622864 149.732361,222.758148 
z"/>
<path fill="#F5F4F4" opacity="1.000000" stroke="none" 
	d="
M204.011993,146.980652 
	C200.082932,142.289047 200.998627,138.651169 204.361481,134.097656 
	C217.124557,116.815666 229.474915,99.225769 241.777481,81.609856 
	C243.853058,78.637833 246.000854,77.526787 249.560638,77.759918 
	C254.637909,78.092422 259.753174,77.844498 265.967255,77.844498 
	C246.710007,104.212860 228.115738,129.673416 208.984039,155.869858 
	C207.185120,152.667221 205.682144,149.991470 204.011993,146.980652 
z"/>
<path fill="#F6F5F6" opacity="1.000000" stroke="none" 
	d="
M148.316772,90.655396 
	C159.410355,106.277840 170.231400,121.652969 181.226105,136.902878 
	C183.051300,139.434494 183.214935,141.348618 181.498520,143.946808 
	C179.140457,147.516266 177.184814,151.351593 174.734955,155.635712 
	C155.814423,129.705704 137.240891,104.251266 117.986519,77.863739 
	C125.192795,77.863739 131.558090,77.761971 137.913376,77.968285 
	C138.921158,78.000999 140.095032,79.261673 140.829102,80.229836 
	C143.340805,83.542435 145.690735,86.977692 148.316772,90.655396 
z"/>
<path fill="#1E1E1D" opacity="1.000000" stroke="none" 
	d="
M140.484055,264.828949 
	C136.925278,265.483582 133.370468,266.680237 129.807068,266.706421 
	C103.343498,266.900879 76.877747,266.790558 50.413940,266.966339 
	C45.789268,266.997009 43.841183,265.618622 43.847420,260.706390 
	C43.934849,191.798080 43.881821,122.889587 43.879501,53.981136 
	C43.879452,52.493107 44.074852,51.005066 44.690536,49.214428 
	C46.132618,49.266590 47.063240,49.621357 47.993862,49.976124 
	C47.666626,50.707230 47.081802,51.427715 47.051163,52.171043 
	C46.652485,61.843307 46.045601,71.519417 46.066055,81.193344 
	C46.090919,92.947617 46.710552,104.699646 46.974293,116.454857 
	C47.099003,122.013649 46.994267,127.577583 46.730415,133.804901 
	C46.644054,135.980499 46.820770,137.490402 46.997482,139.000305 
	C46.997448,142.030731 46.997410,145.061172 46.727585,148.796341 
	C46.636814,151.334152 46.815838,153.167221 46.994862,155.000290 
	C46.995514,156.066803 46.996162,157.133316 46.733250,158.834808 
	C46.644051,160.979965 46.818413,162.490112 46.992775,164.000275 
	C46.993965,165.714249 46.995159,167.428238 46.835724,169.662262 
	C46.782459,170.455139 46.889824,170.727951 46.997189,171.000778 
	C46.997822,172.714813 46.998455,174.428848 46.754021,176.758728 
	C46.670189,178.249924 46.831425,179.125290 46.992657,180.000656 
	C46.992722,181.714691 46.992786,183.428726 46.748665,185.759506 
	C46.667568,187.251053 46.830654,188.125854 46.993744,189.000656 
	C46.994846,190.714691 46.995949,192.428726 46.752457,194.758881 
	C46.669147,196.250214 46.830437,197.125427 46.991722,198.000656 
	C46.993145,202.735672 46.995594,207.470673 46.995781,212.205688 
	C46.996208,223.186295 46.839523,234.170700 47.106297,245.144806 
	C47.172035,247.848984 48.885231,250.476120 49.327789,253.221420 
	C49.611897,254.983826 49.078709,256.924103 48.683559,258.734833 
	C48.385605,260.100159 47.725597,261.386505 47.226734,262.708008 
	C48.540771,263.140472 49.853619,263.945831 51.169022,263.950012 
	C74.460976,264.024292 97.753365,264.028961 121.045181,263.934082 
	C122.556953,263.927948 124.122925,263.120850 125.562424,262.464264 
	C128.405045,261.167755 130.844177,260.654327 133.943420,262.584503 
	C135.773911,263.724548 138.800140,262.944672 141.550507,263.304504 
	C141.369598,263.996857 140.926834,264.412903 140.484055,264.828949 
z"/>
<path fill="#E8E8E8" opacity="1.000000" stroke="none" 
	d="
M299.999908,144.002502 
	C297.625336,143.945953 295.250732,143.889404 291.990997,143.828064 
	C288.070557,143.882172 285.035278,143.941086 282.000000,144.000000 
	C278.634430,143.945023 275.268890,143.890030 271.000977,143.829346 
	C266.732086,143.891907 263.365509,143.960159 259.998932,144.028412 
	C258.007385,143.951355 255.928040,144.193329 254.056992,143.678421 
	C252.922058,143.366089 251.373550,141.892548 251.361053,140.923248 
	C251.348831,139.975632 252.943069,138.843384 254.044449,138.111847 
	C254.628433,137.723969 255.663406,138.001373 256.494781,138.001648 
	C275.962036,138.008240 295.429291,138.017593 314.896545,138.028564 
	C315.728027,138.029037 316.806396,137.725571 317.338440,138.130463 
	C318.372925,138.917740 319.568054,140.022339 319.776825,141.163742 
	C319.897888,141.825455 318.319977,143.388245 317.346588,143.543762 
	C314.906586,143.933563 312.375458,143.752930 308.996765,143.802429 
	C305.408447,143.869995 302.704163,143.936249 299.999908,144.002502 
z"/>
<path fill="#E7E7E7" opacity="1.000000" stroke="none" 
	d="
M265.019867,172.952545 
	C261.693634,172.959274 258.807373,173.302902 256.053741,172.846344 
	C254.296982,172.555084 252.736710,171.078964 251.088318,170.134094 
	C252.665817,169.123077 254.176224,167.394485 255.833755,167.239532 
	C260.290771,166.822861 264.810547,167.066803 269.305420,167.069107 
	C284.121826,167.076706 298.938263,167.093369 313.754669,167.106812 
	C314.587036,167.107574 315.603363,166.806198 316.214203,167.175095 
	C317.569885,167.993805 318.722198,169.149216 319.957428,170.167358 
	C318.790741,171.067963 317.742218,172.404510 316.427979,172.760757 
	C314.717072,173.224533 312.795258,172.926712 310.964203,172.928070 
	C295.814789,172.939301 280.665405,172.943924 265.019867,172.952545 
z"/>
<path fill="#E8E8E8" opacity="1.000000" stroke="none" 
	d="
M62.135132,143.660950 
	C60.047539,139.387772 60.611176,138.079117 64.966553,138.063629 
	C85.089203,137.992050 105.212852,137.971970 125.333870,138.167282 
	C126.725128,138.180786 128.097870,140.100037 129.479233,141.133057 
	C128.116089,142.002792 126.819595,143.461472 125.376488,143.624802 
	C121.925423,144.015411 118.405319,143.796051 114.019714,143.818359 
	C110.750809,143.877731 108.375298,143.941666 105.999779,144.005615 
	C104.929756,143.951996 103.859734,143.898361 101.984802,143.838699 
	C99.786362,143.894669 98.392830,143.956680 96.999290,144.018707 
	C91.973633,143.966446 86.947975,143.914185 81.000488,143.855453 
	C74.097488,143.786285 68.116310,143.723618 62.135132,143.660950 
z"/>
<path fill="#E8E8E8" opacity="1.000000" stroke="none" 
	d="
M94.000031,167.095795 
	C104.497635,167.109039 114.498718,166.994049 124.489395,167.264053 
	C126.145012,167.308807 127.755173,169.035217 129.386337,169.984497 
	C127.802200,170.969391 126.226959,172.794601 124.632584,172.811462 
	C104.972672,173.019363 85.309364,173.030594 65.649117,172.851593 
	C64.017929,172.836746 62.402660,171.074493 60.780006,170.124115 
	C62.355553,169.110001 63.906635,167.265854 65.510674,167.218567 
	C74.833557,166.943802 84.168900,167.091492 94.000031,167.095795 
z"/>
<path fill="#E7E7E7" opacity="1.000000" stroke="none" 
	d="
M109.990692,108.882584 
	C110.068817,110.591484 110.146942,112.300400 109.589920,114.269821 
	C93.344841,114.517357 77.734924,114.504387 62.125004,114.491417 
	C62.050747,112.738640 61.976490,110.985863 62.514534,109.028763 
	C78.748116,108.843826 94.369400,108.863205 109.990692,108.882584 
z"/>
<path fill="#EBEBEA" opacity="1.000000" stroke="none" 
	d="
M318.171143,108.723854 
	C320.140076,110.381233 321.011871,112.121765 317.885254,114.298302 
	C301.772186,114.511848 286.353424,114.539810 270.934692,114.567780 
	C270.802734,112.776085 270.670746,110.984390 271.243652,108.992790 
	C287.356079,108.769875 302.763611,108.746864 318.171143,108.723854 
z"/>
<path fill="#DFE0DF" opacity="1.000000" stroke="none" 
	d="
M318.037537,196.124664 
	C318.644196,197.533951 319.250824,198.943237 319.857483,200.352524 
	C318.428680,200.930496 317.003876,201.998749 315.570465,202.010406 
	C301.603546,202.124146 287.635223,202.045013 273.667328,202.060287 
	C270.257843,202.064011 268.423340,201.004059 270.330017,196.932556 
	C270.664398,196.601654 270.892456,196.362274 271.366943,196.335114 
	C283.897583,196.228851 295.953735,196.149750 308.009918,196.070618 
	C310.381287,196.147964 312.752686,196.225327 315.889984,196.272629 
	C317.116455,196.203278 317.576996,196.163971 318.037537,196.124664 
z"/>
<path fill="#DFE0DF" opacity="1.000000" stroke="none" 
	d="
M109.899750,196.332062 
	C112.203781,200.709778 111.540878,202.023605 106.828651,202.038574 
	C93.013695,202.082458 79.198524,202.050629 65.383453,202.065704 
	C61.957264,202.069443 59.391022,201.489609 62.377586,196.824799 
	C78.662987,196.415100 94.281364,196.373581 109.899750,196.332062 
z"/>
<path fill="#202020" opacity="1.000000" stroke="none" 
	d="
M243.999573,49.108093 
	C246.121338,48.191158 248.311874,47.143517 250.507416,47.132942 
	C277.088684,47.004883 303.670685,47.018311 330.252472,47.051037 
	C331.494293,47.052567 332.735443,47.581463 334.103455,48.536758 
	C334.463287,49.480064 334.696594,49.751362 334.929871,50.022659 
	C334.929871,50.022663 335.062042,49.815655 335.053436,50.292076 
	C334.979431,52.849277 334.914032,54.930054 334.848602,57.010834 
	C330.800903,54.700191 326.753204,52.389553 322.165985,49.793343 
	C320.749451,49.667328 319.872406,49.826885 318.995392,49.986439 
	C317.608856,49.986870 316.222351,49.987301 314.183441,49.724724 
	C312.019867,49.639030 310.508698,49.816345 308.997498,49.993660 
	C306.957153,49.994381 304.916809,49.995102 302.153839,49.711597 
	C298.286774,49.616467 295.142303,49.805561 291.997864,49.994659 
	C288.306305,49.994854 284.614777,49.995045 280.227539,49.731064 
	C278.020416,49.642647 276.509033,49.818401 274.997620,49.994148 
	C272.298859,49.995110 269.600098,49.996067 266.166382,49.712391 
	C262.286987,49.616959 259.142578,49.806156 255.998138,49.995354 
	C252.022324,49.816650 248.046494,49.637947 243.999573,49.108093 
z"/>
<path fill="#202020" opacity="1.000000" stroke="none" 
	d="
M48.462917,49.980812 
	C47.063240,49.621357 46.132618,49.266590 44.811424,48.869797 
	C46.042896,48.215515 47.662815,47.076000 49.287304,47.069458 
	C77.327263,46.956490 105.367775,46.981010 133.408173,46.991699 
	C134.062851,46.991951 134.717468,47.180199 135.725571,47.507618 
	C134.608246,48.488590 133.179703,49.771912 131.658463,49.893261 
	C127.771530,50.203331 123.843292,49.995598 119.164261,49.704136 
	C101.829529,49.295544 85.262146,49.168541 68.694527,49.099766 
	C68.131630,49.097431 67.566292,49.680637 67.002090,49.990913 
	C60.978718,49.989109 54.955345,49.987305 48.462917,49.980812 
z"/>
<path fill="#F4F3F4" opacity="1.000000" stroke="none" 
	d="
M62.011200,85.099983 
	C59.628532,81.626106 60.418594,79.744514 64.751434,79.652451 
	C65.871323,79.628662 66.991768,79.630692 68.914825,79.608246 
	C70.851151,79.521591 71.984612,79.447556 73.118065,79.373520 
	C79.354393,79.467270 85.591385,79.530304 91.826797,79.666061 
	C95.701851,79.750427 97.211761,81.187187 93.785095,84.977341 
	C82.701881,85.148094 72.356544,85.124039 62.011200,85.099983 
z"/>
<path fill="#F4F3F4" opacity="1.000000" stroke="none" 
	d="
M318.039368,225.258301 
	C318.197266,227.092392 318.355133,228.926483 317.787476,230.897186 
	C307.044495,231.069061 297.027008,231.104324 287.009552,231.139587 
	C285.139252,229.882019 283.855774,228.489380 286.501801,225.957184 
	C297.413849,225.475555 307.726593,225.366928 318.039368,225.258301 
z"/>
<path fill="#F4F3F4" opacity="1.000000" stroke="none" 
	d="
M93.925636,225.233917 
	C94.130844,227.031326 94.336044,228.828720 93.801071,230.821991 
	C82.711617,230.997849 72.362335,230.977829 62.013062,230.957825 
	C62.144424,229.195847 62.275791,227.433853 63.145325,225.523743 
	C73.897545,225.328369 83.911591,225.281143 93.925636,225.233917 
z"/>
<path fill="#F4F3F4" opacity="1.000000" stroke="none" 
	d="
M287.022247,85.276573 
	C286.543732,83.868912 285.501892,82.325157 285.796814,81.104340 
	C285.975311,80.365417 288.202454,79.829140 289.549438,79.725571 
	C292.359741,79.509483 295.196808,79.640839 298.803772,79.618408 
	C301.047729,79.540627 302.510773,79.473869 303.973816,79.407120 
	C306.723938,79.482567 309.474030,79.558022 313.001953,79.637024 
	C315.908539,80.428223 318.037323,81.215874 320.166077,82.003525 
	C319.848145,82.780731 319.530243,83.557953 318.631409,84.687469 
	C307.707703,85.118698 297.364990,85.197639 287.022247,85.276573 
z"/>
<path fill="#2C2D2C" opacity="1.000000" stroke="none" 
	d="
M333.842133,264.943787 
	C333.042542,265.792816 331.991791,266.805695 330.940552,266.806213 
	C303.179932,266.819427 275.419281,266.728058 247.306671,266.432190 
	C248.365555,262.293060 251.702637,264.686005 254.845245,264.320618 
	C256.388947,264.762360 257.195068,265.037567 258.001465,265.038422 
	C280.114838,265.062012 302.228271,265.074036 324.341522,265.013916 
	C325.567993,265.010559 326.792725,264.370483 328.018280,264.026764 
	C329.875763,264.229797 331.733246,264.432861 333.842133,264.943787 
z"/>
<path fill="#040404" opacity="1.000000" stroke="none" 
	d="
M137.973740,34.708485 
	C106.978935,35.016407 75.957870,35.032715 44.471138,34.995907 
	C44.779549,34.294521 45.553627,33.646252 47.143562,32.992500 
	C77.646347,32.996490 107.333275,33.005970 137.020203,33.015446 
	C137.329300,33.482590 137.638382,33.949730 137.973740,34.708485 
z"/>
<path fill="#080807" opacity="1.000000" stroke="none" 
	d="
M247.015045,279.439819 
	C276.066620,279.056244 305.124908,278.980530 334.588959,278.990906 
	C334.995026,279.501709 334.995331,279.926392 334.529663,280.671600 
	C305.046936,280.987854 276.030151,280.983643 247.013367,280.979431 
	C247.016174,280.568848 247.018967,280.158264 247.015045,279.439819 
z"/>
<path fill="#040404" opacity="1.000000" stroke="none" 
	d="
M334.870728,34.469597 
	C305.303375,34.920010 275.619568,34.992249 245.469635,35.014587 
	C246.306778,34.310326 247.607803,33.090076 248.913589,33.084984 
	C276.335999,32.978096 303.758942,32.994946 331.181641,33.057602 
	C332.373291,33.060326 333.563446,33.731583 334.870728,34.469597 
z"/>
<path fill="#080807" opacity="1.000000" stroke="none" 
	d="
M45.092583,279.448792 
	C74.362671,279.037750 103.718880,278.986877 133.533096,279.039642 
	C133.988510,279.552277 133.985931,279.961273 133.515793,280.679016 
	C105.374763,280.999664 77.701294,281.011566 50.027824,281.023468 
	C48.411453,280.618622 46.795078,280.213806 45.092583,279.448792 
z"/>
<path fill="#181717" opacity="1.000000" stroke="none" 
	d="
M335.462494,74.997231 
	C335.923157,80.026031 335.987396,85.055328 335.959900,90.543823 
	C330.717163,90.794548 328.858582,88.548340 329.119385,81.620079 
	C329.248993,78.176758 330.150055,74.554695 335.462494,74.997231 
z"/>
<path fill="#F4F3F4" opacity="1.000000" stroke="none" 
	d="
M140.888977,264.871490 
	C140.926834,264.412903 141.369598,263.996857 141.957916,263.310242 
	C148.122681,257.662292 154.141876,252.284897 160.161072,246.907501 
	C159.976364,246.548050 159.791656,246.188599 159.606949,245.829147 
	C158.311050,250.061539 157.015137,254.293945 155.452698,258.758789 
	C152.016312,258.736023 149.361206,259.131927 147.139450,262.084625 
	C145.981964,263.622955 143.291779,264.008057 140.888977,264.871490 
z"/>
<path fill="#1A1A1A" opacity="1.000000" stroke="none" 
	d="
M136.719147,32.722462 
	C107.333275,33.005970 77.646347,32.996490 47.494331,32.979927 
	C48.261593,32.649075 49.493397,32.045090 50.726372,32.042683 
	C78.482979,31.988512 106.239708,31.996769 133.996399,32.017849 
	C134.803726,32.018467 135.610855,32.286259 136.719147,32.722462 
z"/>
<path fill="#1A1A1A" opacity="1.000000" stroke="none" 
	d="
M246.925964,281.269897 
	C276.030151,280.983643 305.046936,280.987854 334.532593,280.990112 
	C333.777252,281.325714 332.553650,281.955353 331.328766,281.957916 
	C303.609528,282.016052 275.890167,282.007660 248.170837,281.989288 
	C247.726639,281.989014 247.282654,281.709503 246.925964,281.269897 
z"/>
<path fill="#1A1A1A" opacity="1.000000" stroke="none" 
	d="
M50.326283,281.309448 
	C77.701294,281.011566 105.374763,280.999664 133.514786,280.985840 
	C134.607086,281.058746 135.232819,281.133667 135.966690,281.221527 
	C135.678513,281.573273 135.515884,281.945953 135.352798,281.946136 
	C108.086441,281.980621 80.820053,281.992615 53.553669,281.980286 
	C52.577301,281.979858 51.601048,281.729340 50.326283,281.309448 
z"/>
<path fill="#080807" opacity="1.000000" stroke="none" 
	d="
M317.950226,108.319855 
	C302.763611,108.746864 287.356079,108.769875 271.481445,108.766647 
	C272.046021,108.159523 273.074036,107.080582 274.109833,107.073059 
	C287.902313,106.972870 301.695984,107.009102 315.489044,107.072777 
	C316.237091,107.076225 316.982605,107.622337 317.950226,108.319855 
z"/>
<path fill="#080807" opacity="1.000000" stroke="none" 
	d="
M109.878395,108.500320 
	C94.369400,108.863205 78.748116,108.843826 62.673706,108.811020 
	C63.237038,108.201256 64.249428,107.093773 65.270554,107.085648 
	C79.416100,106.973007 93.562904,106.995750 107.709068,107.059502 
	C108.396317,107.062599 109.080490,107.749557 109.878395,108.500320 
z"/>
<path fill="#1E1E1D" opacity="1.000000" stroke="none" 
	d="
M327.548004,264.016479 
	C326.792725,264.370483 325.567993,265.010559 324.341522,265.013916 
	C302.228271,265.074036 280.114838,265.062012 258.001465,265.038422 
	C257.195068,265.037567 256.388947,264.762360 255.281647,264.322632 
	C279.012970,264.022217 303.045349,264.014191 327.548004,264.016479 
z"/>
<path fill="#080807" opacity="1.000000" stroke="none" 
	d="
M62.109047,231.352325 
	C72.362335,230.977829 82.711617,230.997849 93.525757,231.076202 
	C93.161034,231.749908 92.338463,232.888992 91.500816,232.900192 
	C82.394157,233.022049 73.284920,232.992233 64.177254,232.908142 
	C63.516331,232.902039 62.862282,232.151337 62.109047,231.352325 
z"/>
<path fill="#000000" opacity="1.000000" stroke="none" 
	d="
M287.039673,85.558121 
	C297.364990,85.197639 307.707703,85.118698 318.515442,84.986504 
	C318.807312,85.510086 318.634186,86.086937 317.749512,86.837555 
	C307.024231,86.996292 297.010498,86.981255 286.996765,86.966217 
	C287.016846,86.590706 287.036957,86.215187 287.039673,85.558121 
z"/>
<path fill="#000000" opacity="1.000000" stroke="none" 
	d="
M62.028198,85.406609 
	C72.356544,85.124039 82.701881,85.148094 93.512909,85.212921 
	C93.978661,85.638786 93.978729,86.023888 93.521660,86.700882 
	C86.720428,87.004173 80.376328,87.015556 74.032234,87.026932 
	C73.854912,87.023933 73.677597,87.020943 72.780052,87.015945 
	C68.705658,86.989487 65.351509,86.965034 61.997353,86.940575 
	C62.013302,86.531464 62.029251,86.122345 62.028198,85.406609 
z"/>
<path fill="#080807" opacity="1.000000" stroke="none" 
	d="
M287.124634,231.519012 
	C297.027008,231.104324 307.044495,231.069061 317.525391,231.102829 
	C317.153473,231.773544 316.324524,232.887558 315.481812,232.898041 
	C306.588470,233.008728 297.692780,232.960739 288.798401,232.882858 
	C288.276001,232.878281 287.759155,232.241165 287.124634,231.519012 
z"/>
<path fill="#F6F5F6" opacity="1.000000" stroke="none" 
	d="
M237.295959,260.530640 
	C234.199295,259.818512 230.944611,258.795532 227.410431,257.878601 
	C225.993591,254.737686 224.856216,251.490723 223.718842,248.243744 
	C224.006516,248.112335 224.294189,247.980927 224.581863,247.849503 
	C228.767212,251.972931 232.952560,256.096344 237.295959,260.530640 
z"/>
<path fill="#181717" opacity="1.000000" stroke="none" 
	d="
M320.532104,81.994888 
	C318.037323,81.215874 315.908539,80.428223 313.407532,79.514824 
	C312.589111,75.974365 314.842834,73.880714 317.488770,74.310638 
	C320.061218,74.728622 322.312622,77.122581 324.704987,78.648880 
	C323.436035,79.761345 322.167053,80.873802 320.532104,81.994888 
z"/>
<path fill="#181717" opacity="1.000000" stroke="none" 
	d="
M335.481628,114.998055 
	C335.937744,118.034500 335.992493,121.071693 335.957458,124.555969 
	C331.100861,125.653473 330.358673,122.211205 330.158142,118.884407 
	C329.969696,115.757599 332.138336,114.658310 335.481628,114.998055 
z"/>
<path fill="#1E1E1D" opacity="1.000000" stroke="none" 
	d="
M67.470459,49.994133 
	C67.566292,49.680637 68.131630,49.097431 68.694527,49.099766 
	C85.262146,49.168541 101.829529,49.295544 118.697319,49.702087 
	C101.978073,49.993046 84.958450,49.995197 67.470459,49.994133 
z"/>
<path fill="#181717" opacity="1.000000" stroke="none" 
	d="
M335.436707,232.996582 
	C335.906219,235.702942 335.970093,238.409576 335.946411,241.559753 
	C331.813324,242.454453 330.243958,240.147385 330.050995,236.577240 
	C329.854797,232.947800 332.465363,232.937073 335.436707,232.996582 
z"/>
<path fill="#202020" opacity="1.000000" stroke="none" 
	d="
M109.994690,115.963272 
	C109.438103,116.284943 108.880219,116.889587 108.325119,116.887047 
	C93.078056,116.817154 77.831261,116.685410 62.763065,116.272781 
	C78.626030,115.975494 94.310364,115.969383 109.994690,115.963272 
z"/>
<path fill="#1E1E1D" opacity="1.000000" stroke="none" 
	d="
M62.003746,195.022522 
	C62.562672,194.704666 63.122902,194.107147 63.680328,194.109756 
	C78.923073,194.180817 94.165543,194.313110 109.233475,194.722931 
	C93.373840,195.014618 77.688789,195.018555 62.003746,195.022522 
z"/>
<path fill="#000000" opacity="1.000000" stroke="none" 
	d="
M109.954247,115.589859 
	C94.310364,115.969383 78.626030,115.975494 62.473816,115.970352 
	C62.031746,115.714973 62.057556,115.470848 62.104187,114.859070 
	C77.734924,114.504387 93.344841,114.517357 109.414383,114.498306 
	C109.887276,114.716324 109.900536,114.966377 109.954247,115.589859 
z"/>
<path fill="#000000" opacity="1.000000" stroke="none" 
	d="
M62.044189,195.414642 
	C77.688789,195.018555 93.373840,195.014618 109.526901,195.020325 
	C109.974663,195.246674 109.954422,195.463379 109.916969,196.006073 
	C94.281364,196.373581 78.662987,196.415100 62.588493,196.525177 
	C62.116467,196.331421 62.100552,196.069092 62.044189,195.414642 
z"/>
<path fill="#000000" opacity="1.000000" stroke="none" 
	d="
M270.963074,114.936790 
	C286.353424,114.539810 301.772186,114.511848 317.671509,114.518059 
	C317.653564,115.007080 317.155060,115.461922 315.845032,115.966225 
	C300.360138,116.025681 285.686798,116.035675 271.013458,116.045677 
	C271.006134,115.799049 270.998810,115.552422 270.963074,114.936790 
z"/>
<path fill="#1A1A1A" opacity="1.000000" stroke="none" 
	d="
M62.145386,144.033234 
	C68.116310,143.723618 74.097488,143.786285 80.539795,143.936539 
	C80.039688,144.680511 79.160873,145.665909 78.101685,145.931198 
	C75.012360,146.704956 71.817001,147.774536 68.729156,147.594894 
	C66.483727,147.464233 64.343033,145.533615 62.145386,144.033234 
z"/>
<path fill="#202020" opacity="1.000000" stroke="none" 
	d="
M271.319092,116.324059 
	C285.686798,116.035675 300.360138,116.025681 315.497559,116.022385 
	C315.395782,116.331032 314.828735,116.898506 314.264160,116.896065 
	C300.050873,116.834618 285.837799,116.713257 271.319092,116.324059 
z"/>
<path fill="#181717" opacity="1.000000" stroke="none" 
	d="
M335.449005,149.998260 
	C335.909241,152.703415 335.971313,155.410385 335.942841,158.560410 
	C333.089874,159.159531 330.951904,158.693298 330.966156,155.147018 
	C330.977875,152.227417 331.189880,149.741241 335.449005,149.998260 
z"/>
<path fill="#1A1A1A" opacity="1.000000" stroke="none" 
	d="
M271.005005,195.013092 
	C271.563873,194.697693 272.124115,194.105011 272.681427,194.107758 
	C284.250824,194.164551 295.819855,194.288925 307.227356,194.693756 
	C295.045502,194.996094 283.025238,195.004593 271.005005,195.013092 
z"/>
<path fill="#000000" opacity="1.000000" stroke="none" 
	d="
M271.003540,195.006165 
	C283.025238,195.004593 295.045502,194.996094 307.534698,194.974915 
	C308.007507,195.146957 308.011353,195.331680 308.012573,195.793518 
	C295.953735,196.149750 283.897583,196.228851 271.411255,195.997009 
	C270.991852,195.459030 271.002594,195.232040 271.013336,195.005035 
	C271.013336,195.005035 271.002075,194.999207 271.003540,195.006165 
z"/>
<path fill="#1E1E1D" opacity="1.000000" stroke="none" 
	d="
M286.004883,224.029053 
	C287.388641,223.686844 288.773956,223.044067 290.155945,223.051117 
	C299.240112,223.097427 308.323547,223.283875 317.234253,223.716309 
	C306.709137,224.015015 296.356995,224.022034 286.004883,224.029053 
z"/>
<path fill="#000000" opacity="1.000000" stroke="none" 
	d="
M286.058533,224.457092 
	C296.356995,224.022034 306.709137,224.015015 317.529724,224.011688 
	C317.999420,224.222717 318.000641,224.430054 318.020599,224.947845 
	C307.726593,225.366928 297.413849,225.475555 286.651489,225.663727 
	C286.171997,225.457230 286.142090,225.171188 286.058533,224.457092 
z"/>
<path fill="#000000" opacity="1.000000" stroke="none" 
	d="
M93.941559,224.925812 
	C83.911591,225.281143 73.897545,225.328369 63.416748,225.298309 
	C63.149864,224.903961 63.349728,224.586945 64.255547,224.129425 
	C74.640549,223.993317 84.319588,223.997696 93.998634,224.002075 
	C93.984909,224.207306 93.971191,224.412521 93.941559,224.925812 
z"/>
<path fill="#1E1E1D" opacity="1.000000" stroke="none" 
	d="
M94.079254,223.711655 
	C84.319588,223.997696 74.640549,223.993317 64.496674,223.981171 
	C66.399498,223.646729 68.767365,223.042664 71.134766,223.044510 
	C78.809891,223.050476 86.484848,223.278625 94.079254,223.711655 
z"/>
<path fill="#1E1E1D" opacity="1.000000" stroke="none" 
	d="
M287.289825,87.266800 
	C297.010498,86.981255 307.024231,86.996292 317.502686,87.019272 
	C315.585114,87.353661 313.202454,87.958366 310.820557,87.955391 
	C303.074524,87.945724 295.328766,87.713768 287.289825,87.266800 
z"/>
<path fill="#181717" opacity="1.000000" stroke="none" 
	d="
M335.472321,215.998413 
	C335.921722,217.717438 335.982941,219.438080 335.954315,221.580948 
	C334.268524,221.049805 332.672546,220.096466 331.076569,219.143127 
	C332.412415,218.095444 333.748260,217.047745 335.472321,215.998413 
z"/>
<path fill="#E3E3E3" opacity="1.000000" stroke="none" 
	d="
M334.917603,57.380348 
	C334.914032,54.930054 334.979431,52.849277 335.167358,50.337971 
	C335.712311,53.426498 336.134735,56.945553 336.255066,60.740494 
	C335.630859,59.927536 335.308716,58.838699 334.917603,57.380348 
z"/>
<path fill="#1A1A1A" opacity="1.000000" stroke="none" 
	d="
M260.099152,144.413361 
	C263.365509,143.960159 266.732086,143.891907 270.549377,143.913742 
	C267.650665,147.678040 263.926239,146.254944 260.099152,144.413361 
z"/>
<path fill="#1E1E1D" opacity="1.000000" stroke="none" 
	d="
M74.330460,87.312057 
	C80.376328,87.015556 86.720428,87.004173 93.533188,86.989937 
	C87.544121,87.190453 81.086403,87.393814 74.330460,87.312057 
z"/>
<path fill="#1A1A1A" opacity="1.000000" stroke="none" 
	d="
M282.095581,144.384094 
	C285.035278,143.941086 288.070557,143.882172 291.552917,143.911530 
	C288.994873,147.632233 285.609680,146.412796 282.095581,144.384094 
z"/>
<path fill="#1A1A1A" opacity="1.000000" stroke="none" 
	d="
M300.093811,144.384171 
	C302.704163,143.936249 305.408447,143.869995 308.555908,143.890778 
	C306.362335,147.598907 303.281982,146.260132 300.093811,144.384171 
z"/>
<path fill="#1A1A1A" opacity="1.000000" stroke="none" 
	d="
M106.090408,144.381546 
	C108.375298,143.941666 110.750809,143.877731 113.563118,143.905670 
	C111.712326,147.530075 108.974045,146.425400 106.090408,144.381546 
z"/>
<path fill="#F6F5F6" opacity="1.000000" stroke="none" 
	d="
M338.334351,277.810608 
	C338.089386,275.264709 338.654633,273.358459 342.165894,275.074005 
	C341.227631,276.076477 339.950012,276.947296 338.334351,277.810608 
z"/>
<path fill="#1E1E1D" opacity="1.000000" stroke="none" 
	d="
M62.276283,87.241135 
	C65.351509,86.965034 68.705658,86.989487 72.514076,87.020233 
	C69.497299,87.198242 66.026253,87.369965 62.276283,87.241135 
z"/>
<path fill="#F6F5F6" opacity="1.000000" stroke="none" 
	d="
M237.299164,274.917206 
	C239.127213,274.133942 241.447800,272.893799 241.964905,276.919189 
	C240.485077,276.646942 238.999573,275.922974 237.299164,274.917206 
z"/>
<path fill="#1A1A1A" opacity="1.000000" stroke="none" 
	d="
M97.075943,144.373306 
	C98.392830,143.956680 99.786362,143.894669 101.590195,143.922821 
	C100.794258,147.029510 99.062523,146.482834 97.075943,144.373306 
z"/>
<path fill="#1A1A1A" opacity="1.000000" stroke="none" 
	d="
M256.452454,49.997314 
	C259.142578,49.806156 262.286987,49.616959 265.716614,49.711731 
	C262.970093,49.996895 259.938416,49.998085 256.452454,49.997314 
z"/>
<path fill="#1A1A1A" opacity="1.000000" stroke="none" 
	d="
M292.452209,49.996956 
	C295.142303,49.805561 298.286774,49.616467 301.716614,49.711044 
	C298.970184,49.996231 295.938354,49.997742 292.452209,49.996956 
z"/>
<path fill="#E3E3E3" opacity="1.000000" stroke="none" 
	d="
M335.627380,260.140106 
	C335.936371,261.282440 335.896118,262.571930 335.530945,263.942047 
	C335.230072,262.777527 335.254089,261.532410 335.627380,260.140106 
z"/>
<path fill="#040404" opacity="1.000000" stroke="none" 
	d="
M303.834198,79.100723 
	C302.510773,79.473869 301.047729,79.540627 299.238892,79.476349 
	C300.493561,79.161644 302.094086,78.977989 303.834198,79.100723 
z"/>
<path fill="#1A1A1A" opacity="1.000000" stroke="none" 
	d="
M46.996727,154.571808 
	C46.815838,153.167221 46.636814,151.334152 46.726589,149.250427 
	C46.996452,150.714279 46.997524,152.428802 46.996727,154.571808 
z"/>
<path fill="#1A1A1A" opacity="1.000000" stroke="none" 
	d="
M270.628204,195.005280 
	C271.002594,195.232040 270.991852,195.459030 270.936768,196.024155 
	C270.892456,196.362274 270.664398,196.601654 270.620758,196.596466 
	C269.653473,196.591278 268.729858,196.591278 267.806213,196.591278 
	C267.730438,196.318512 267.654663,196.045746 267.578888,195.772980 
	C268.466949,195.517151 269.355011,195.261322 270.628204,195.005280 
z"/>
<path fill="#1A1A1A" opacity="1.000000" stroke="none" 
	d="
M46.995331,163.583588 
	C46.818413,162.490112 46.644051,160.979965 46.732513,159.234756 
	C46.996185,160.388763 46.997040,161.777832 46.995331,163.583588 
z"/>
<path fill="#1A1A1A" opacity="1.000000" stroke="none" 
	d="
M275.414673,49.996620 
	C276.509033,49.818401 278.020416,49.642647 279.767090,49.730396 
	C278.612122,49.995628 277.221954,49.997356 275.414673,49.996620 
z"/>
<path fill="#1A1A1A" opacity="1.000000" stroke="none" 
	d="
M46.998718,138.583588 
	C46.820770,137.490402 46.644054,135.980499 46.729717,134.235245 
	C46.994713,135.388885 46.997334,136.777863 46.998718,138.583588 
z"/>
<path fill="#1A1A1A" opacity="1.000000" stroke="none" 
	d="
M309.414703,49.996166 
	C310.508698,49.816345 312.019867,49.639030 313.767487,49.723557 
	C312.613251,49.989822 311.222565,49.994247 309.414703,49.996166 
z"/>
<path fill="#040404" opacity="1.000000" stroke="none" 
	d="
M72.914612,79.056412 
	C71.984612,79.447556 70.851151,79.521591 69.308990,79.463638 
	C70.170578,79.134209 71.440865,78.936752 72.914612,79.056412 
z"/>
<path fill="#1A1A1A" opacity="1.000000" stroke="none" 
	d="
M46.995796,188.625504 
	C46.830654,188.125854 46.667568,187.251053 46.747391,186.187881 
	C46.992825,186.749786 46.995338,187.500076 46.995796,188.625504 
z"/>
<path fill="#1A1A1A" opacity="1.000000" stroke="none" 
	d="
M319.371094,49.991238 
	C319.872406,49.826885 320.749451,49.667328 321.813812,49.752964 
	C321.249695,49.997448 320.498260,49.996742 319.371094,49.991238 
z"/>
<path fill="#1A1A1A" opacity="1.000000" stroke="none" 
	d="
M46.995350,179.625549 
	C46.831425,179.125290 46.670189,178.249924 46.753220,177.187103 
	C46.997665,177.749908 46.997852,178.500183 46.995350,179.625549 
z"/>
<path fill="#1A1A1A" opacity="1.000000" stroke="none" 
	d="
M46.994637,197.625534 
	C46.830437,197.125427 46.669147,196.250214 46.751705,195.187256 
	C46.996216,195.749817 46.996880,196.500107 46.994637,197.625534 
z"/>
<path fill="#000000" opacity="1.000000" stroke="none" 
	d="
M317.890930,195.886902 
	C317.576996,196.163971 317.116455,196.203278 316.319824,196.152100 
	C316.570587,195.924103 317.157471,195.786621 317.890930,195.886902 
z"/>
<path fill="#1A1A1A" opacity="1.000000" stroke="none" 
	d="
M46.997795,170.750305 
	C46.889824,170.727951 46.782459,170.455139 46.835236,170.090622 
	C46.996384,170.165909 46.997395,170.332870 46.997795,170.750305 
z"/>
<path fill="#1A1A1A" opacity="1.000000" stroke="none" 
	d="
M140.542877,33.471039 
	C140.571045,33.519974 140.514694,33.422100 140.542877,33.471039 
z"/>
<path fill="#F4F3F4" opacity="1.000000" stroke="none" 
	d="
M277.002869,44.998329 
	C271.385651,44.998322 266.267731,44.998322 261.149811,44.998322 
	C261.153168,44.758114 261.156525,44.517906 261.159882,44.277699 
	C284.319061,44.277699 307.478271,44.277699 330.637482,44.277699 
	C330.640594,44.517910 330.643738,44.758125 330.646851,44.998337 
	C312.931946,44.998337 295.217041,44.998337 277.002869,44.998329 
z"/>
<path fill="#141313" opacity="1.000000" stroke="none" 
	d="
M335.001770,49.717445 
	C334.696594,49.751362 334.463287,49.480064 334.165192,48.941933 
	C334.424805,48.920807 334.749268,49.166519 335.001770,49.717445 
z"/>
<path fill="#F4F3F4" opacity="1.000000" stroke="none" 
	d="
M81.844650,44.004814 
	C98.709404,44.001682 115.171555,44.001682 131.633713,44.001682 
	C131.634094,44.215405 131.634460,44.429131 131.634842,44.642853 
	C114.460258,44.642853 97.285675,44.642853 79.218834,44.642853 
	C80.536186,44.266644 80.989113,44.137295 81.844650,44.004814 
z"/>
<path fill="#F4F3F4" opacity="1.000000" stroke="none" 
	d="
M59.836712,44.004524 
	C64.369194,44.001362 68.501045,44.001362 72.632889,44.001362 
	C72.635262,44.214832 72.637627,44.428307 72.639992,44.641777 
	C67.797905,44.641777 62.955818,44.641777 57.230988,44.641777 
	C58.534428,44.266964 58.985252,44.137325 59.836712,44.004524 
z"/>
<path fill="#F8F8F8" opacity="1.000000" stroke="none" 
	d="
M41.258312,69.010880 
	C41.414978,68.908356 41.572826,68.959023 41.730675,69.009689 
	C41.573616,69.061150 41.416557,69.112610 41.258312,69.010880 
z"/>
<path fill="#F8F8F8" opacity="1.000000" stroke="none" 
	d="
M41.456337,64.527512 
	C41.428242,64.478195 41.484428,64.576836 41.456337,64.527512 
z"/>
<path fill="#F4F3F4" opacity="1.000000" stroke="none" 
	d="
M47.456913,44.527061 
	C47.428661,44.477684 47.485165,44.576435 47.456913,44.527061 
z"/>
</svg>