<?xml version="1.0" encoding="UTF-8" standalone="no"?>
<svg xmlns="http://www.w3.org/2000/svg" viewBox="80 460 400 400" preserveAspectRatio="xMidYMid meet">
  <defs>
    <mask id="m" maskUnits="userSpaceOnUse" x="0" y="0" width="1254" height="1254">
      <rect x="0" y="0" width="1254" height="1254" fill="#fff"/>
      <g transform="translate(0,1254) scale(0.1,-0.1)" fill="#000">
        <path d="M0 6270 l0 -6270 6270 0 6270 0 0 6270 0 6270 -6270 0 -6270 0 0
-6270z m2037 1280 c63 -28 109 -107 157 -270 l16 -55 -89 96 c-50 53 -106 104
-125 113 -30 14 -88 16 -478 16 -332 0 -447 -3 -456 -12 -17 -17 -17 -2159 0
-2176 9 -9 121 -12 444 -12 237 0 447 3 465 6 26 5 58 31 137 112 57 59 101
100 98 92 -2 -8 -14 -46 -27 -85 -43 -136 -95 -209 -168 -234 -23 -7 -179 -11
-498 -11 -511 0 -510 0 -554 61 l-24 34 0 1127 c0 1124 0 1127 21 1155 47 64
40 63 564 63 447 0 477 -2 517 -20z m1973 2 c23 -11 43 -33 58 -62 l22 -44 0
-1097 0 -1096 -23 -43 c-44 -83 -28 -81 -563 -78 l-471 3 -40 28 c-22 15 -52
50 -67 77 -27 49 -89 220 -83 227 2 1 34 -32 72 -75 37 -42 86 -90 109 -107
l40 -30 433 -3 c293 -2 440 1 453 8 20 11 20 22 20 1088 0 825 -3 1081 -12
1090 -18 18 -857 17 -901 -2 -30 -12 -120 -98 -182 -174 -15 -18 -29 -31 -32
-29 -9 9 77 230 102 263 56 74 54 74 570 74 418 0 463 -2 495 -18z m-8612
-112 c49 -70 144 -203 210 -297 67 -93 125 -176 130 -184 5 -9 -5 -39 -31 -87
-21 -41 -42 -74 -46 -74 -3 0 -132 173 -287 385 l-280 385 107 0 107 0 90
-128z m1052 -39 c-68 -93 -195 -266 -282 -385 -87 -120 -161 -218 -165 -218
-9 0 -86 141 -83 152 2 4 101 145 220 313 l218 305 107 0 108 0 -123 -167z
m-8785 -31 c0 -19 -7 -20 -170 -20 -169 0 -170 0 -173 23 l-3 22 173 -2 c165
-3 173 -4 173 -23z m2240 0 c0 -19 -8 -20 -164 -23 -165 -3 -189 2 -178 33 6
13 28 15 174 13 160 -3 168 -4 168 -23z m-2087 -289 c2 -10 -2 -22 -9 -27 -15
-9 -448 -12 -472 -3 -17 6 -23 35 -10 48 4 3 115 5 247 4 227 -3 241 -4 244
-22z m2087 -1 c0 -19 -10 -20 -238 -29 -210 -8 -241 -7 -254 7 -9 8 -13 23
-10 31 6 15 35 16 254 14 240 -3 248 -4 248 -23z m-9209 -110 c7 -7 8 -17 1
-30 -9 -17 -29 -18 -340 -18 -284 0 -330 2 -335 15 -4 8 -4 22 0 30 5 13 51
15 334 15 234 0 331 -3 340 -12z m1910 -12 c2 -10 -2 -22 -10 -27 -7 -5 -158
-9 -334 -9 -273 0 -323 2 -334 15 -7 8 -10 22 -6 30 5 13 48 15 343 13 321 -3
338 -4 341 -22z m-7694 177 l33 -62 -209 -299 c-114 -164 -215 -307 -223 -316
-12 -15 -32 -18 -115 -18 -81 0 -98 3 -94 14 3 8 93 135 199 283 106 147 229
318 273 380 90 126 81 125 136 18z m484 -175 c98 -135 218 -300 266 -367 49
-66 92 -128 95 -137 6 -15 -5 -16 -97 -14 l-104 3 -222 315 -221 315 41 78
c32 61 44 75 53 65 7 -7 92 -123 189 -258z m-1000 160 l0 -25 -333 -3 c-289
-2 -333 0 -338 13 -4 8 -4 22 0 30 5 13 49 15 338 13 l333 -3 0 -25z m1910 0
l0 -25 -340 0 c-325 0 -340 1 -343 19 -2 10 2 22 10 27 7 5 162 8 343 6 l330
-2 0 -25z m-2090 -290 l0 -25 -245 0 c-232 0 -245 1 -248 19 -2 10 2 22 10 27
7 5 119 8 248 6 l235 -2 0 -25z m2083 21 c8 -5 12 -17 10 -27 -3 -18 -18 -19
-249 -22 -221 -2 -247 -1 -253 14 -15 40 6 44 248 44 127 0 237 -4 244 -9z
m-2238 -296 c7 -8 10 -22 6 -30 -5 -13 -30 -15 -173 -13 -155 3 -168 4 -171
22 -2 10 2 22 10 27 7 5 81 9 164 9 122 0 154 -3 164 -15z m2242 -3 c6 -6 8
-18 5 -26 -9 -23 -335 -24 -343 -1 -15 37 11 43 172 41 96 -2 159 -7 166 -14z"/>
      </g>
    </mask>
  </defs>
  <rect x="0" y="0" width="1254" height="1254" fill="#000000" mask="url(#m)"/>
</svg>
